HIERARCHY
ROOT Hips
{
  OFFSET -543.289 91.5819 1312.45
  CHANNELS 6 Xposition Yposition Zposition Zrotation Xrotation Yrotation
  JOINT Spine
  {
    OFFSET -1.3176e-05 8 8.18051e-05
    CHANNELS 6 Xposition Yposition Zposition Zrotation Xrotation Yrotation
    JOINT Spine1
    {
      OFFSET -0.000138337 8 -7.6215e-05
      CHANNELS 6 Xposition Yposition Zposition Zrotation Xrotation Yrotation
      JOINT Spine2
      {
        OFFSET -0.00146843 7.99999 -0.00217608
        CHANNELS 6 Xposition Yposition Zposition Zrotation Xrotation Yrotation
        JOINT Spine3
        {
          OFFSET 0 8 0
          CHANNELS 6 Xposition Yposition Zposition Zrotation Xrotation Yrotation
          JOINT Neck
          {
            OFFSET 0.000354708 17 0
            CHANNELS 6 Xposition Yposition Zposition Zrotation Xrotation Yrotation
            JOINT Head
            {
              OFFSET 0.00075385 10.8 0.00221531
              CHANNELS 6 Xposition Yposition Zposition Zrotation Xrotation Yrotation
              End Site
              {
                OFFSET 0 20.25 0
              }
            }
          }
          JOINT LeftShoulder
          {
            OFFSET 5.00049 16.9999 0
            CHANNELS 6 Xposition Yposition Zposition Zrotation Xrotation Yrotation
            JOINT LeftShoulder2
            {
              OFFSET 6.45 0 0
              CHANNELS 6 Xposition Yposition Zposition Zrotation Xrotation Yrotation
              JOINT LeftArm
              {
                OFFSET 6.44993 0 -4.3455e-05
                CHANNELS 6 Xposition Yposition Zposition Zrotation Xrotation Yrotation
                JOINT LeftForeArm
                {
                  OFFSET -0.00302212 -32.4004 -1.99499
                  CHANNELS 6 Xposition Yposition Zposition Zrotation Xrotation Yrotation
                  JOINT LeftHand
                  {
                    OFFSET 0.000131136 -25.6499 1.99993
                    CHANNELS 6 Xposition Yposition Zposition Zrotation Xrotation Yrotation
                    JOINT LeftHandThumb1
                    {
                      OFFSET -0.500197 -1.49831 2.65085
                      CHANNELS 6 Xposition Yposition Zposition Zrotation Xrotation Yrotation
                      JOINT LeftHandThumb2
                      {
                        OFFSET -0.000113981 -3.79987 3.69987
                        CHANNELS 6 Xposition Yposition Zposition Zrotation Xrotation Yrotation
                        JOINT LeftHandThumb3
                        {
                          OFFSET 0.00234426 -3.00067 2.69634
                          CHANNELS 6 Xposition Yposition Zposition Zrotation Xrotation Yrotation
                          End Site
                          {
                            OFFSET -0.00344596 -2.29258 1.8016
                          }
                        }
                      }
                    }
                    JOINT LeftHandIndex
                    {
                      OFFSET 3.28865e-05 -1.89885 1.60012
                      CHANNELS 6 Xposition Yposition Zposition Zrotation Xrotation Yrotation
                      JOINT LeftHandIndex1
                      {
                        OFFSET 6.46486e-05 -8.29911 1.90009
                        CHANNELS 6 Xposition Yposition Zposition Zrotation Xrotation Yrotation
                        JOINT LeftHandIndex2
                        {
                          OFFSET 0.00188172 -4.49469 -0.00683771
                          CHANNELS 6 Xposition Yposition Zposition Zrotation Xrotation Yrotation
                          JOINT LeftHandIndex3
                          {
                            OFFSET 0.00126351 -3.4065 -0.00421667
                            CHANNELS 6 Xposition Yposition Zposition Zrotation Xrotation Yrotation
                            End Site
                            {
                              OFFSET 0.000486657 -2.60017 0.000167307
                            }
                          }
                        }
                      }
                    }
                    JOINT LeftHandMiddle
                    {
                      OFFSET -0.248398 -2.20311 0.391444
                      CHANNELS 6 Xposition Yposition Zposition Zrotation Xrotation Yrotation
                      JOINT LeftHandMiddle1
                      {
                        OFFSET 0.0018128 -8.30988 0.996257
                        CHANNELS 6 Xposition Yposition Zposition Zrotation Xrotation Yrotation
                        JOINT LeftHandMiddle2
                        {
                          OFFSET 0.00388772 -4.64799 -0.00943671
                          CHANNELS 6 Xposition Yposition Zposition Zrotation Xrotation Yrotation
                          JOINT LeftHandMiddle3
                          {
                            OFFSET -0.000636507 -3.29947 -0.00227912
                            CHANNELS 6 Xposition Yposition Zposition Zrotation Xrotation Yrotation
                            End Site
                            {
                              OFFSET 0 -2.7 0.000165591
                            }
                          }
                        }
                      }
                    }
                    JOINT LeftHandRing
                    {
                      OFFSET -0.500032 -2.15089 -0.800175
                      CHANNELS 6 Xposition Yposition Zposition Zrotation Xrotation Yrotation
                      JOINT LeftHandRing1
                      {
                        OFFSET 0.00117827 -7.74915 -0.201931
                        CHANNELS 6 Xposition Yposition Zposition Zrotation Xrotation Yrotation
                        JOINT LeftHandRing2
                        {
                          OFFSET -0.000533428 -3.7982 0.000329275
                          CHANNELS 6 Xposition Yposition Zposition Zrotation Xrotation Yrotation
                          JOINT LeftHandRing3
                          {
                            OFFSET -0.000999563 -3.39989 -0.000605501
                            CHANNELS 6 Xposition Yposition Zposition Zrotation Xrotation Yrotation
                            End Site
                            {
                              OFFSET -0.0019121 -2.59983 0.00170635
                            }
                          }
                        }
                      }
                    }
                    JOINT LeftHandPinky
                    {
                      OFFSET -0.750052 -1.74955 -1.84924
                      CHANNELS 6 Xposition Yposition Zposition Zrotation Xrotation Yrotation
                      JOINT LeftHandPinky1
                      {
                        OFFSET -0.0011983 -7.14432 -0.997247
                        CHANNELS 6 Xposition Yposition Zposition Zrotation Xrotation Yrotation
                        JOINT LeftHandPinky2
                        {
                          OFFSET 0.00293088 -2.99877 -0.00294065
                          CHANNELS 6 Xposition Yposition Zposition Zrotation Xrotation Yrotation
                          JOINT LeftHandPinky3
                          {
                            OFFSET 0.000180485 -2.34979 -0.000374168
                            CHANNELS 6 Xposition Yposition Zposition Zrotation Xrotation Yrotation
                            End Site
                            {
                              OFFSET 0.00135306 -2.09983 0.00185357
                            }
                          }
                        }
                      }
                    }
                  }
                }
              }
            }
          }
          JOINT RightShoulder
          {
            OFFSET -4.99954 17.0001 -7.82739e-05
            CHANNELS 6 Xposition Yposition Zposition Zrotation Xrotation Yrotation
            JOINT RightShoulder2
            {
              OFFSET -6.45 0 0
              CHANNELS 6 Xposition Yposition Zposition Zrotation Xrotation Yrotation
              JOINT RightArm
              {
                OFFSET -6.44998 -2.38733e-05 2.75407e-05
                CHANNELS 6 Xposition Yposition Zposition Zrotation Xrotation Yrotation
                JOINT RightForeArm
                {
                  OFFSET -0.000441517 -32.4059 -2.00398
                  CHANNELS 6 Xposition Yposition Zposition Zrotation Xrotation Yrotation
                  JOINT RightHand
                  {
                    OFFSET 0.00016839 -25.6497 1.9998
                    CHANNELS 6 Xposition Yposition Zposition Zrotation Xrotation Yrotation
                    JOINT RightHandThumb1
                    {
                      OFFSET 0.495748 -1.49644 2.65606
                      CHANNELS 6 Xposition Yposition Zposition Zrotation Xrotation Yrotation
                      JOINT RightHandThumb2
                      {
                        OFFSET -0.00241484 -3.80442 3.69032
                        CHANNELS 6 Xposition Yposition Zposition Zrotation Xrotation Yrotation
                        JOINT RightHandThumb3
                        {
                          OFFSET -0.00229388 -3.00792 2.69745
                          CHANNELS 6 Xposition Yposition Zposition Zrotation Xrotation Yrotation
                          End Site
                          {
                            OFFSET 0.00232542 -2.30295 1.79826
                          }
                        }
                      }
                    }
                    JOINT RightHandIndex
                    {
                      OFFSET 7.3962e-05 -1.89798 1.60043
                      CHANNELS 6 Xposition Yposition Zposition Zrotation Xrotation Yrotation
                      JOINT RightHandIndex1
                      {
                        OFFSET 2.54623e-05 -8.3 1.90004
                        CHANNELS 6 Xposition Yposition Zposition Zrotation Xrotation Yrotation
                        JOINT RightHandIndex2
                        {
                          OFFSET 0.00300161 -4.50728 0.00655644
                          CHANNELS 6 Xposition Yposition Zposition Zrotation Xrotation Yrotation
                          JOINT RightHandIndex3
                          {
                            OFFSET -0.00102097 -3.40104 2.28335e-05
                            CHANNELS 6 Xposition Yposition Zposition Zrotation Xrotation Yrotation
                            End Site
                            {
                              OFFSET -0.00114105 -2.59974 -0.000175478
                            }
                          }
                        }
                      }
                    }
                    JOINT RightHandMiddle
                    {
                      OFFSET 0.249328 -2.20142 0.400356
                      CHANNELS 6 Xposition Yposition Zposition Zrotation Xrotation Yrotation
                      JOINT RightHandMiddle1
                      {
                        OFFSET -0.00306998 -8.29809 1.00365
                        CHANNELS 6 Xposition Yposition Zposition Zrotation Xrotation Yrotation
                        JOINT RightHandMiddle2
                        {
                          OFFSET 0.00108882 -4.65059 -0.000594471
                          CHANNELS 6 Xposition Yposition Zposition Zrotation Xrotation Yrotation
                          JOINT RightHandMiddle3
                          {
                            OFFSET 0.00158568 -3.303 -0.000447153
                            CHANNELS 6 Xposition Yposition Zposition Zrotation Xrotation Yrotation
                            End Site
                            {
                              OFFSET 0.00918472 -2.69565 -0.00184977
                            }
                          }
                        }
                      }
                    }
                    JOINT RightHandRing
                    {
                      OFFSET 0.498539 -2.14985 -0.79868
                      CHANNELS 6 Xposition Yposition Zposition Zrotation Xrotation Yrotation
                      JOINT RightHandRing1
                      {
                        OFFSET 0.00039289 -7.74897 -0.200068
                        CHANNELS 6 Xposition Yposition Zposition Zrotation Xrotation Yrotation
                        JOINT RightHandRing2
                        {
                          OFFSET 0.000849851 -3.79961 -0.000320161
                          CHANNELS 6 Xposition Yposition Zposition Zrotation Xrotation Yrotation
                          JOINT RightHandRing3
                          {
                            OFFSET -0.00132311 -3.39621 0.00116506
                            CHANNELS 6 Xposition Yposition Zposition Zrotation Xrotation Yrotation
                            End Site
                            {
                              OFFSET 0.00565121 -2.59056 0.00289279
                            }
                          }
                        }
                      }
                    }
                    JOINT RightHandPinky
                    {
                      OFFSET 0.749555 -1.75058 -1.85034
                      CHANNELS 6 Xposition Yposition Zposition Zrotation Xrotation Yrotation
                      JOINT RightHandPinky1
                      {
                        OFFSET 0.000289154 -7.15081 -1.00052
                        CHANNELS 6 Xposition Yposition Zposition Zrotation Xrotation Yrotation
                        JOINT RightHandPinky2
                        {
                          OFFSET 0.00035063 -2.99979 -0.000410689
                          CHANNELS 6 Xposition Yposition Zposition Zrotation Xrotation Yrotation
                          JOINT RightHandPinky3
                          {
                            OFFSET -0.000637021 -2.34855 0.000334291
                            CHANNELS 6 Xposition Yposition Zposition Zrotation Xrotation Yrotation
                            End Site
                            {
                              OFFSET -0.00023609 -2.10026 -0.000275896
                            }
                          }
                        }
                      }
                    }
                  }
                }
              }
            }
          }
        }
      }
    }
  }
  JOINT LeftUpLeg
  {
    OFFSET 8.00001 0 1.10334e-05
    CHANNELS 6 Xposition Yposition Zposition Zrotation Xrotation Yrotation
    JOINT LeftLeg
    {
      OFFSET 8.07015e-05 -45.0001 -0.999819
      CHANNELS 6 Xposition Yposition Zposition Zrotation Xrotation Yrotation
      JOINT LeftFoot
      {
        OFFSET -0.000297341 -40.9998 -2.00019
        CHANNELS 6 Xposition Yposition Zposition Zrotation Xrotation Yrotation
        JOINT LeftToeBase
        {
          OFFSET 0 -7.49994 12.5
          CHANNELS 6 Xposition Yposition Zposition Zrotation Xrotation Yrotation
          JOINT LeftFootToe
          {
            OFFSET 0 0 4
            CHANNELS 6 Xposition Yposition Zposition Zrotation Xrotation Yrotation
            End Site
            {
              OFFSET 0 0 0
            }
          }
        }
      }
    }
  }
  JOINT RightUpLeg
  {
    OFFSET -8.00001 0 -1.10334e-05
    CHANNELS 6 Xposition Yposition Zposition Zrotation Xrotation Yrotation
    JOINT RightLeg
    {
      OFFSET -0.000214439 -45.0001 -1.00035
      CHANNELS 6 Xposition Yposition Zposition Zrotation Xrotation Yrotation
      JOINT RightFoot
      {
        OFFSET -8.10346e-05 -41.0001 -1.99988
        CHANNELS 6 Xposition Yposition Zposition Zrotation Xrotation Yrotation
        JOINT RightToeBase
        {
          OFFSET 0.000543581 -7.5 12.5003
          CHANNELS 6 Xposition Yposition Zposition Zrotation Xrotation Yrotation
          JOINT RightFootToe
          {
            OFFSET 0 0 4
            CHANNELS 6 Xposition Yposition Zposition Zrotation Xrotation Yrotation
            End Site
            {
              OFFSET 0 0 0
            }
          }
        }
      }
    }
  }
}
MOTION
Frames:	3
Frame Time:	0.0111111
-539.625 91.3312 1314.76 1.57124 5.85758 -107.975 2.27374e-13 8 -5.68434e-14 6.74017 1.18115 7.82429 2.27374e-13 8 -1.13687e-13 0.260004 2.41389 2.824 0 8 5.68434e-14 0.135582 1.20565 1.41347 -2.27374e-13 8 0 0.137723 1.205 1.41261 0 17 0 2.43574 4.21331 5.93941 0 10.8 1.13687e-13 1.52832 -3.87233 14.2872 5 17 1.7053e-13 1.78827 3.60401 -4.75862 6.45 0 0 -0.879457 -0.42523 0.33884 6.45 -5.68434e-14 -5.68434e-14 23.4909 -27.9561 47.152 0 -32.4 -2 -74.645 -13.6952 -40.7005 0 -25.65 2 15.0878 10.0709 21.282 -0.5 -1.5 2.65 -16.3062 -11.9638 3.42553 0 -3.8 3.7 7.52033 15.7266 3.88066 1.13687e-13 -3 2.7 -0.46672 14.8508 -0.328165 0 -1.9 1.6 4.47077e-06 1.30644e-07 2.82451e-06 0 -8.3 1.9 -25.6963 30.9709 8.32174 2.27374e-13 -4.5 0 -1.81147 0.0157468 -0.00865087 -2.27374e-13 -3.4 -1.13687e-13 -1.6466 0.0139902 -0.0633697 -0.25 -2.2 0.4 4.47077e-06 1.30644e-07 2.82451e-06 2.27374e-13 -8.3 1 -30.4655 29.3772 9.95701 0 -4.65 1.13687e-13 -50.788 -0.00753168 0.0603621 5.68434e-14 -3.3 2.27374e-13 -89.4608 -0.0595348 0.00421023 -0.5 -2.15 -0.8 4.47077e-06 1.30644e-07 2.82451e-06 0 -7.75 -0.2 -25.9409 23.5612 6.97524 -1.13687e-13 -3.8 0 -0.288457 0.00874573 0.00291016 0 -3.4 -2.27374e-13 -44.5177 -0.00561444 -0.0109571 -0.75 -1.75 -1.85 4.47077e-06 1.30644e-07 2.82451e-06 -2.27374e-13 -7.15 -1 -33.0852 22.7597 9.13229 -1.13687e-13 -3 0 -0.107254 0.0991845 -0.234666 -1.13687e-13 -2.35 0 0.00121337 0.0812474 0.0184123 -5 17 -5.68434e-14 8.29241 6.77876 -0.919727 -6.45 -8.52651e-14 -1.7053e-13 -0.920069 -0.402218 -2.21827 -6.45 2.84217e-14 1.13687e-13 -60.9788 8.03803 -5.13475 1.13687e-13 -32.4 -2 102.288 -39.6212 94.6282 0 -25.65 2 -33.0149 6.46838 30.6216 0.5 -1.5 2.65 138.038 83.2967 42.884 -1.13687e-13 -3.8 3.7 -15.028 34.1475 -0.70224 -2.27374e-13 -3 2.7 0.0332911 32.7744 0.0508223 0 -1.9 1.6 1.26867e-05 5.5984e-06 -7.71522e-06 1.13687e-13 -8.3 1.9 7.29627 1.51581 -0.11794 -5.68434e-14 -4.5 -2.27374e-13 0.267313 0.0340548 0.00388711 4.54747e-13 -3.4 -2.27374e-13 0.263067 0.00540842 0.0621117 0.25 -2.2 0.4 1.26867e-05 5.5984e-06 -7.71522e-06 -1.13687e-13 -8.3 1 2.92502 8.0133 -0.281557 0 -4.65 2.27374e-13 40.5133 22.458 1.92139 0 -3.3 -2.27374e-13 34.5957 -0.0071126 -0.0403761 0.5 -2.15 -0.8 1.26867e-05 5.5984e-06 -7.71522e-06 0 -7.75 -0.2 18.0159 11.1794 -2.27903 2.27374e-13 -3.8 0 23.7938 33.0233 10.3581 1.13687e-13 -3.4 0 40.2756 -0.0427732 -0.00437201 0.75 -1.75 -1.85 1.26867e-05 5.5984e-06 -7.71522e-06 5.68434e-14 -7.15 -1 21.9302 10.405 -2.84523 5.68434e-14 -3 0 30.7579 24.5515 3.53902 -5.68434e-14 -2.35 2.27374e-13 32.3787 -0.0123292 -0.0117589 8 0 -5.68434e-14 19.7259 -26.7277 18.8862 0 -45 -1 -1.52894 0.408972 7.229 2.27374e-13 -41 -2 2.36829 22.0353 2.44222 -2.27374e-13 -7.5 12.5 -0.00100264 0.00553739 0.215312 0 0 4 1.30268 -6.53899 2.29672 -8 -5.68434e-14 -5.68434e-14 4.25682 -2.86216 4.84245 0 -45 -1 -2.19114 -1.13081 -6.90366 2.27374e-13 -41 -2 6.1305 5.49072 -26.3232 2.27374e-13 -7.5 12.5 -0.00215341 -0.00107983 0.0245434 0 0 4 1.25396 -1.47744 29.709 
-539.607 91.3278 1314.73 1.56626 5.85713 -107.99 2.27374e-13 8 5.68434e-14 6.71732 1.1201 7.82412 0 8 0 0.259121 2.39708 2.82578 0 8 2.27374e-13 0.135771 1.19724 1.41435 2.27374e-13 8 1.13687e-13 0.137768 1.19672 1.41401 -2.27374e-13 17 -1.7053e-13 2.44539 4.27049 5.92784 2.27374e-13 10.8 0 1.54685 -3.81353 14.264 5 17 5.68434e-14 1.84068 3.67141 -4.7524 6.45 -4.26326e-14 0 -0.881223 -0.419473 0.328834 6.45 -1.13687e-13 -1.13687e-13 23.4442 -27.8976 47.4922 0 -32.4 -2 -74.4257 -13.3863 -39.9467 0 -25.65 2 12.5615 10.241 21.71 -0.5 -1.5 2.65 -14.9029 -11.6048 4.15804 0 -3.8 3.7 6.84178 14.3937 3.76417 2.27374e-13 -3 2.7 -0.535001 19.824 -0.387129 0 -1.9 1.6 4.47077e-06 1.30644e-07 2.82451e-06 0 -8.3 1.9 -22.8159 30.4324 7.29856 2.27374e-13 -4.5 0 -1.44339 0.0157468 -0.00865087 -1.13687e-13 -3.4 -1.13687e-13 -1.29432 0.0151301 -0.0633697 -0.25 -2.2 0.4 4.47077e-06 1.30644e-07 2.82451e-06 2.27374e-13 -8.3 1 -26.0837 28.9097 8.37936 0 -4.65 0 -49.7495 -0.00309815 0.0967282 -5.68434e-14 -3.3 2.27374e-13 -87.8409 -0.092353 0.0122787 -0.5 -2.15 -0.8 4.47077e-06 1.30644e-07 2.82451e-06 -2.27374e-13 -7.75 -0.2 -22.2216 23.063 5.85448 0 -3.8 -1.13687e-13 -0.288457 0.00874573 0.00291016 -1.13687e-13 -3.4 -3.41061e-13 -44.948 -0.00172125 -0.00540482 -0.75 -1.75 -1.85 4.47077e-06 1.30644e-07 2.82451e-06 -2.27374e-13 -7.15 -1 -28.0968 22.6897 7.6662 -1.13687e-13 -3 0 -0.107254 0.0991845 -0.234666 0 -2.35 -1.13687e-13 0.00121337 0.0812474 0.0184123 -5 17 5.68434e-14 8.30006 6.86407 -0.90508 -6.45 -2.84217e-14 -5.68434e-14 -0.923819 -0.405354 -2.20507 -6.45 -2.84217e-14 -5.68434e-14 -60.8315 8.04768 -5.17711 0 -32.4 -2 101.949 -39.7038 94.2434 1.7053e-13 -25.65 2 -32.5242 6.48132 30.0438 0.5 -1.5 2.65 158.265 80.3115 21.7174 -1.13687e-13 -3.8 3.7 -19.3005 39.4488 0.812168 1.13687e-13 -3 2.7 0.0268832 34.3828 0.0162121 5.68434e-14 -1.9 1.6 1.26867e-05 5.5984e-06 -7.71522e-06 0 -8.3 1.9 7.67143 1.67994 -0.137105 -5.68434e-14 -4.5 0 0.0655057 0.00827979 0.00388711 5.11591e-13 -3.4 -2.27374e-13 0.0620261 0.00131505 0.0621117 0.25 -2.2 0.4 1.26867e-05 5.5984e-06 -7.71522e-06 -1.13687e-13 -8.3 1 3.15738 7.85314 -0.292272 5.68434e-14 -4.65 2.27374e-13 40.0925 22.0156 1.83969 -5.68434e-14 -3.3 0 34.1586 -0.0071126 -0.0403761 0.5 -2.15 -0.8 1.26867e-05 5.5984e-06 -7.71522e-06 5.68434e-14 -7.75 -0.2 17.9734 10.9653 -2.23264 2.27374e-13 -3.8 0 23.7937 33.0108 10.3487 1.7053e-13 -3.4 -2.27374e-13 40.2616 -0.0427732 -0.00437201 0.75 -1.75 -1.85 1.26867e-05 5.5984e-06 -7.71522e-06 0 -7.15 -1 21.8128 10.1636 -2.77227 -1.13687e-13 -3 -4.54747e-13 30.807 24.618 3.55662 0 -2.35 -2.27374e-13 32.4422 -0.0123292 -0.0117589 8 -2.84217e-14 0 19.7533 -26.723 18.8543 0 -45 -1 -1.5324 0.406383 7.22158 2.27374e-13 -41 -2 2.33605 22.0069 2.49587 -2.27374e-13 -7.5 12.5 -0.00100264 0.00553739 0.215312 -2.27374e-13 2.84217e-14 4 1.29159 -6.51008 2.29403 -8 2.84217e-14 -5.68434e-14 4.27194 -2.86643 4.87319 0 -45 -1 -2.18631 -1.12429 -6.90809 -2.27374e-13 -41 -2 6.11014 5.49632 -26.3079 -2.27374e-13 -7.5 12.5 -0.00215341 -0.00107983 0.0245434 0 7.10543e-15 4 1.26585 -1.46835 29.7006 
-539.59 91.3247 1314.71 1.56235 5.85612 -108.016 0 8 2.27374e-13 6.69786 1.06041 7.82397 0 8 -5.68434e-14 0.257875 2.38119 2.83314 0 8 1.7053e-13 0.135891 1.1893 1.41802 0 8 1.13687e-13 0.137783 1.18863 1.41671 -2.27374e-13 17 -1.7053e-13 2.45689 4.32365 5.91385 4.54747e-13 10.8 0 1.56496 -3.75784 14.2352 5 17 -1.13687e-13 1.88323 3.7293 -4.73124 6.45 -1.42109e-14 1.13687e-13 -0.882888 -0.413976 0.314471 6.45 -5.68434e-14 -1.7053e-13 23.427 -27.8467 47.8081 0 -32.4 -2 -74.209 -13.0982 -39.2642 0 -25.65 2 10.0856 10.4755 22.2156 -0.5 -1.5 2.65 -13.5085 -11.4547 4.79393 0 -3.8 3.7 6.28385 13.266 3.64785 2.27374e-13 -3 2.7 -0.492967 25.0627 -0.389208 0 -1.9 1.6 4.47077e-06 1.30644e-07 2.82451e-06 2.27374e-13 -8.3 1.9 -20.3799 29.7641 6.41252 2.27374e-13 -4.5 1.13687e-13 -1.04609 0.0134371 -0.00865087 0 -3.4 1.13687e-13 -0.917206 0.0129923 -0.0639487 -0.25 -2.2 0.4 4.47077e-06 1.30644e-07 2.82451e-06 2.27374e-13 -8.3 1 -22.2776 28.2064 7.00286 0 -4.65 2.27374e-13 -48.1857 0.000375131 0.104984 -2.84217e-14 -3.3 2.27374e-13 -81.8038 -0.102353 0.0431616 -0.5 -2.15 -0.8 4.47077e-06 1.30644e-07 2.82451e-06 -2.27374e-13 -7.75 -0.2 -19.0237 22.473 4.91315 0 -3.8 1.13687e-13 -0.288457 0.00874573 0.00291016 0 -3.4 -2.27374e-13 -45.145 0.000833323 -0.00107492 -0.75 -1.75 -1.85 4.47077e-06 1.30644e-07 2.82451e-06 -2.27374e-13 -7.15 -1 -23.7203 22.3344 6.37655 -1.13687e-13 -3 -1.13687e-13 -0.107339 0.0991845 -0.234666 0 -2.35 0 0.00121337 0.0812474 0.0184123 -5 17 -5.68434e-14 8.30472 6.94372 -0.885784 -6.45 -5.68434e-14 -2.27374e-13 -0.926929 -0.408997 -2.19519 -6.45 0 -1.13687e-13 -60.6785 8.08189 -5.2245 0 -32.4 -2 101.576 -39.7649 93.8 1.13687e-13 -25.65 2 -32.0296 6.49761 29.4855 0.5 -1.5 2.65 165.657 78.3371 13.5711 -1.7053e-13 -3.8 3.7 -22.1114 42.4718 1.921 -1.13687e-13 -3 2.7 0.0242612 35.3233 -0.00579343 5.68434e-14 -1.9 1.6 1.26867e-05 5.5984e-06 -7.71522e-06 5.68434e-14 -8.3 1.9 8.03971 1.85719 -0.157403 1.13687e-13 -4.5 0 -0.0357234 -0.00597163 0.00388711 4.54747e-13 -3.4 0 -0.0392408 -0.00189914 0.0626932 0.25 -2.2 0.4 1.26867e-05 5.5984e-06 -7.71522e-06 -5.68434e-14 -8.3 1 3.4074 7.72289 -0.304408 5.68434e-14 -4.65 -2.27374e-13 39.6813 21.5987 1.76495 -5.68434e-14 -3.3 -2.27374e-13 33.7433 -0.0071126 -0.0403761 0.5 -2.15 -0.8 1.26867e-05 5.5984e-06 -7.71522e-06 5.68434e-14 -7.75 -0.2 18.0015 10.7882 -2.20214 2.27374e-13 -3.8 0 23.7945 32.9625 10.3106 -5.68434e-14 -3.4 0 40.2065 -0.0427732 -0.00437201 0.75 -1.75 -1.85 1.26867e-05 5.5984e-06 -7.71522e-06 5.68434e-14 -7.15 -1 21.7914 9.94758 -2.71928 -5.68434e-14 -3 0 30.8103 24.6164 3.55329 5.68434e-14 -2.35 0 32.4423 -0.0123292 -0.0117589 8 0 1.7053e-13 19.7878 -26.7107 18.8325 0 -45 -1 -1.54113 0.399206 7.21358 0 -41 -2 2.30418 21.9831 2.54986 -2.27374e-13 -7.5 12.5 -0.00100264 0.00553739 0.215312 0 1.42109e-14 4 1.28706 -6.48482 2.29157 -8 0 -5.68434e-14 4.28796 -2.86954 4.89703 -2.27374e-13 -45 -1 -2.18285 -1.12021 -6.91175 0 -41 -2 6.08946 5.50346 -26.281 0 -7.5 12.5 -0.00215341 -0.00107983 0.0245434 0 0 4 1.27958 -1.46064 29.6987 
